<mxfile host="app.diagrams.net" modified="2024-05-16T16:44:43.537Z" agent="Mozilla/5.0 (Windows NT 10.0; Win64; x64) AppleWebKit/537.36 (KHTML, like Gecko) Chrome/123.0.0.0 Safari/537.36" etag="gZu1FV0dSgEXYlZdrUKp" version="24.4.2" type="github">
  <diagram name="Page-1" id="2YBvvXClWsGukQMizWep">
    <mxGraphModel dx="1984" dy="2228" grid="1" gridSize="10" guides="1" tooltips="1" connect="1" arrows="1" fold="1" page="1" pageScale="1" pageWidth="850" pageHeight="1100" math="0" shadow="0">
      <root>
        <mxCell id="0" />
        <mxCell id="1" parent="0" />
        <mxCell id="aM9ryv3xv72pqoxQDRHE-1" value="" style="shape=umlLifeline;perimeter=lifelinePerimeter;whiteSpace=wrap;html=1;container=0;dropTarget=0;collapsible=0;recursiveResize=0;outlineConnect=0;portConstraint=eastwest;newEdgeStyle={&quot;edgeStyle&quot;:&quot;elbowEdgeStyle&quot;,&quot;elbow&quot;:&quot;vertical&quot;,&quot;curved&quot;:0,&quot;rounded&quot;:0};size=0;" parent="1" vertex="1">
          <mxGeometry x="20" y="-60" width="100" height="730" as="geometry" />
        </mxCell>
        <mxCell id="LpX58kXiAm7gqNkwwqnl-2" value="" style="html=1;points=[];perimeter=orthogonalPerimeter;outlineConnect=0;targetShapes=umlLifeline;portConstraint=eastwest;newEdgeStyle={&quot;edgeStyle&quot;:&quot;elbowEdgeStyle&quot;,&quot;elbow&quot;:&quot;vertical&quot;,&quot;curved&quot;:0,&quot;rounded&quot;:0};" vertex="1" parent="aM9ryv3xv72pqoxQDRHE-1">
          <mxGeometry x="50" y="70" width="10" height="530" as="geometry" />
        </mxCell>
        <mxCell id="aM9ryv3xv72pqoxQDRHE-5" value="UI" style="shape=umlLifeline;perimeter=lifelinePerimeter;whiteSpace=wrap;html=1;container=0;dropTarget=0;collapsible=0;recursiveResize=0;outlineConnect=0;portConstraint=eastwest;newEdgeStyle={&quot;edgeStyle&quot;:&quot;elbowEdgeStyle&quot;,&quot;elbow&quot;:&quot;vertical&quot;,&quot;curved&quot;:0,&quot;rounded&quot;:0};" parent="1" vertex="1">
          <mxGeometry x="220" y="-180" width="100" height="900" as="geometry" />
        </mxCell>
        <mxCell id="LpX58kXiAm7gqNkwwqnl-4" value="" style="html=1;points=[];perimeter=orthogonalPerimeter;outlineConnect=0;targetShapes=umlLifeline;portConstraint=eastwest;newEdgeStyle={&quot;edgeStyle&quot;:&quot;elbowEdgeStyle&quot;,&quot;elbow&quot;:&quot;vertical&quot;,&quot;curved&quot;:0,&quot;rounded&quot;:0};" vertex="1" parent="aM9ryv3xv72pqoxQDRHE-5">
          <mxGeometry x="50" y="100" width="10" height="620" as="geometry" />
        </mxCell>
        <mxCell id="LpX58kXiAm7gqNkwwqnl-1" value="User" style="shape=umlActor;verticalLabelPosition=bottom;verticalAlign=top;html=1;outlineConnect=0;" vertex="1" parent="1">
          <mxGeometry x="55" y="-180" width="30" height="60" as="geometry" />
        </mxCell>
        <mxCell id="LpX58kXiAm7gqNkwwqnl-5" value="" style="endArrow=classic;html=1;rounded=0;" edge="1" parent="1">
          <mxGeometry width="50" height="50" relative="1" as="geometry">
            <mxPoint x="80" y="159.99999999999977" as="sourcePoint" />
            <mxPoint x="270" y="159.99999999999977" as="targetPoint" />
          </mxGeometry>
        </mxCell>
        <mxCell id="LpX58kXiAm7gqNkwwqnl-12" value="click on a date" style="edgeLabel;html=1;align=center;verticalAlign=middle;resizable=0;points=[];" vertex="1" connectable="0" parent="LpX58kXiAm7gqNkwwqnl-5">
          <mxGeometry x="0.2566" y="2" relative="1" as="geometry">
            <mxPoint x="-19" y="-8" as="offset" />
          </mxGeometry>
        </mxCell>
        <mxCell id="LpX58kXiAm7gqNkwwqnl-6" value=":addAppointment" style="shape=umlLifeline;perimeter=lifelinePerimeter;whiteSpace=wrap;html=1;container=0;dropTarget=0;collapsible=0;recursiveResize=0;outlineConnect=0;portConstraint=eastwest;newEdgeStyle={&quot;edgeStyle&quot;:&quot;elbowEdgeStyle&quot;,&quot;elbow&quot;:&quot;vertical&quot;,&quot;curved&quot;:0,&quot;rounded&quot;:0};" vertex="1" parent="1">
          <mxGeometry x="410" y="130" width="100" height="580" as="geometry" />
        </mxCell>
        <mxCell id="LpX58kXiAm7gqNkwwqnl-7" value="" style="html=1;points=[];perimeter=orthogonalPerimeter;outlineConnect=0;targetShapes=umlLifeline;portConstraint=eastwest;newEdgeStyle={&quot;edgeStyle&quot;:&quot;elbowEdgeStyle&quot;,&quot;elbow&quot;:&quot;vertical&quot;,&quot;curved&quot;:0,&quot;rounded&quot;:0};" vertex="1" parent="LpX58kXiAm7gqNkwwqnl-6">
          <mxGeometry x="50" y="70" width="10" height="190" as="geometry" />
        </mxCell>
        <mxCell id="LpX58kXiAm7gqNkwwqnl-8" value="Database" style="shape=umlLifeline;perimeter=lifelinePerimeter;whiteSpace=wrap;html=1;container=0;dropTarget=0;collapsible=0;recursiveResize=0;outlineConnect=0;portConstraint=eastwest;newEdgeStyle={&quot;edgeStyle&quot;:&quot;elbowEdgeStyle&quot;,&quot;elbow&quot;:&quot;vertical&quot;,&quot;curved&quot;:0,&quot;rounded&quot;:0};" vertex="1" parent="1">
          <mxGeometry x="660" y="-180" width="100" height="860" as="geometry" />
        </mxCell>
        <mxCell id="LpX58kXiAm7gqNkwwqnl-9" value="" style="html=1;points=[];perimeter=orthogonalPerimeter;outlineConnect=0;targetShapes=umlLifeline;portConstraint=eastwest;newEdgeStyle={&quot;edgeStyle&quot;:&quot;elbowEdgeStyle&quot;,&quot;elbow&quot;:&quot;vertical&quot;,&quot;curved&quot;:0,&quot;rounded&quot;:0};" vertex="1" parent="LpX58kXiAm7gqNkwwqnl-8">
          <mxGeometry x="50" y="110" width="10" height="420" as="geometry" />
        </mxCell>
        <mxCell id="LpX58kXiAm7gqNkwwqnl-10" value="" style="endArrow=classic;html=1;rounded=0;" edge="1" parent="1">
          <mxGeometry width="50" height="50" relative="1" as="geometry">
            <mxPoint x="280" y="159.99999999999977" as="sourcePoint" />
            <mxPoint x="410" y="160" as="targetPoint" />
          </mxGeometry>
        </mxCell>
        <mxCell id="LpX58kXiAm7gqNkwwqnl-11" value="new(selectDateTime)" style="edgeLabel;html=1;align=center;verticalAlign=middle;resizable=0;points=[];" vertex="1" connectable="0" parent="LpX58kXiAm7gqNkwwqnl-10">
          <mxGeometry x="0.2652" y="1" relative="1" as="geometry">
            <mxPoint x="-22" y="-9" as="offset" />
          </mxGeometry>
        </mxCell>
        <mxCell id="LpX58kXiAm7gqNkwwqnl-13" value="" style="endArrow=classic;html=1;rounded=0;" edge="1" parent="1">
          <mxGeometry width="50" height="50" relative="1" as="geometry">
            <mxPoint x="279.63" y="209.99999999999977" as="sourcePoint" />
            <mxPoint x="80.00096774193548" y="209.99999999999977" as="targetPoint" />
          </mxGeometry>
        </mxCell>
        <mxCell id="LpX58kXiAm7gqNkwwqnl-14" value="showAddAppointmentPopup" style="edgeLabel;html=1;align=center;verticalAlign=middle;resizable=0;points=[];" vertex="1" connectable="0" parent="LpX58kXiAm7gqNkwwqnl-13">
          <mxGeometry x="0.2652" y="1" relative="1" as="geometry">
            <mxPoint x="16" y="-9" as="offset" />
          </mxGeometry>
        </mxCell>
        <mxCell id="LpX58kXiAm7gqNkwwqnl-15" value="" style="endArrow=classic;html=1;rounded=0;" edge="1" parent="1">
          <mxGeometry width="50" height="50" relative="1" as="geometry">
            <mxPoint x="80" y="259.9999999999998" as="sourcePoint" />
            <mxPoint x="270" y="259.9999999999998" as="targetPoint" />
          </mxGeometry>
        </mxCell>
        <mxCell id="LpX58kXiAm7gqNkwwqnl-16" value="enterInfo" style="edgeLabel;html=1;align=center;verticalAlign=middle;resizable=0;points=[];" vertex="1" connectable="0" parent="LpX58kXiAm7gqNkwwqnl-15">
          <mxGeometry x="0.2566" y="2" relative="1" as="geometry">
            <mxPoint x="-19" y="-8" as="offset" />
          </mxGeometry>
        </mxCell>
        <mxCell id="LpX58kXiAm7gqNkwwqnl-17" value="" style="endArrow=classic;html=1;rounded=0;" edge="1" parent="1">
          <mxGeometry width="50" height="50" relative="1" as="geometry">
            <mxPoint x="280" y="279.9999999999998" as="sourcePoint" />
            <mxPoint x="460" y="280" as="targetPoint" />
          </mxGeometry>
        </mxCell>
        <mxCell id="LpX58kXiAm7gqNkwwqnl-18" value="transferInfo" style="edgeLabel;html=1;align=center;verticalAlign=middle;resizable=0;points=[];" vertex="1" connectable="0" parent="LpX58kXiAm7gqNkwwqnl-17">
          <mxGeometry x="0.2566" y="2" relative="1" as="geometry">
            <mxPoint x="-19" y="-8" as="offset" />
          </mxGeometry>
        </mxCell>
        <mxCell id="LpX58kXiAm7gqNkwwqnl-25" value="frame" style="shape=umlFrame;whiteSpace=wrap;html=1;pointerEvents=0;" vertex="1" parent="1">
          <mxGeometry x="50" y="400" width="730" height="290" as="geometry" />
        </mxCell>
        <mxCell id="LpX58kXiAm7gqNkwwqnl-26" value="" style="endArrow=none;html=1;rounded=0;" edge="1" parent="1">
          <mxGeometry width="50" height="50" relative="1" as="geometry">
            <mxPoint x="780" y="510" as="sourcePoint" />
            <mxPoint x="50" y="510" as="targetPoint" />
          </mxGeometry>
        </mxCell>
        <mxCell id="LpX58kXiAm7gqNkwwqnl-27" value="[noExisting]" style="text;html=1;align=center;verticalAlign=middle;resizable=0;points=[];autosize=1;strokeColor=none;fillColor=none;" vertex="1" parent="1">
          <mxGeometry x="110" y="400" width="90" height="30" as="geometry" />
        </mxCell>
        <mxCell id="LpX58kXiAm7gqNkwwqnl-28" style="edgeStyle=elbowEdgeStyle;rounded=0;orthogonalLoop=1;jettySize=auto;html=1;elbow=vertical;curved=0;" edge="1" parent="1">
          <mxGeometry relative="1" as="geometry">
            <mxPoint x="470" y="364.79368421052646" as="sourcePoint" />
            <mxPoint x="709.5" y="364.71" as="targetPoint" />
            <Array as="points">
              <mxPoint x="440" y="364.71" />
            </Array>
          </mxGeometry>
        </mxCell>
        <mxCell id="LpX58kXiAm7gqNkwwqnl-29" value="[isAppointmentExist]new Appointment to list" style="edgeLabel;html=1;align=center;verticalAlign=middle;resizable=0;points=[];" vertex="1" connectable="0" parent="LpX58kXiAm7gqNkwwqnl-28">
          <mxGeometry x="0.5118" y="2" relative="1" as="geometry">
            <mxPoint x="-61" y="-10" as="offset" />
          </mxGeometry>
        </mxCell>
        <mxCell id="LpX58kXiAm7gqNkwwqnl-21" style="edgeStyle=elbowEdgeStyle;rounded=0;orthogonalLoop=1;jettySize=auto;html=1;elbow=horizontal;curved=0;" edge="1" parent="1">
          <mxGeometry relative="1" as="geometry">
            <mxPoint x="469.9999999999999" y="290" as="sourcePoint" />
            <mxPoint x="470" y="327" as="targetPoint" />
            <Array as="points">
              <mxPoint x="540" y="330" />
            </Array>
          </mxGeometry>
        </mxCell>
        <mxCell id="LpX58kXiAm7gqNkwwqnl-24" value="validate" style="edgeLabel;html=1;align=center;verticalAlign=middle;resizable=0;points=[];" vertex="1" connectable="0" parent="LpX58kXiAm7gqNkwwqnl-21">
          <mxGeometry x="-0.3271" y="-1" relative="1" as="geometry">
            <mxPoint x="-14" y="-16" as="offset" />
          </mxGeometry>
        </mxCell>
        <mxCell id="LpX58kXiAm7gqNkwwqnl-33" value="" style="edgeStyle=elbowEdgeStyle;rounded=0;orthogonalLoop=1;jettySize=auto;html=1;elbow=vertical;curved=0;" edge="1" parent="1" source="LpX58kXiAm7gqNkwwqnl-4" target="LpX58kXiAm7gqNkwwqnl-2">
          <mxGeometry relative="1" as="geometry">
            <Array as="points">
              <mxPoint x="250" y="460" />
            </Array>
          </mxGeometry>
        </mxCell>
        <mxCell id="LpX58kXiAm7gqNkwwqnl-34" value="Go back to main screen" style="edgeLabel;html=1;align=center;verticalAlign=middle;resizable=0;points=[];" vertex="1" connectable="0" parent="LpX58kXiAm7gqNkwwqnl-33">
          <mxGeometry x="-0.3801" y="4" relative="1" as="geometry">
            <mxPoint x="-41" y="-14" as="offset" />
          </mxGeometry>
        </mxCell>
        <mxCell id="LpX58kXiAm7gqNkwwqnl-35" value="" style="edgeStyle=elbowEdgeStyle;rounded=0;orthogonalLoop=1;jettySize=auto;html=1;elbow=vertical;curved=0;" edge="1" parent="1">
          <mxGeometry relative="1" as="geometry">
            <mxPoint x="270" y="540" as="sourcePoint" />
            <mxPoint x="80" y="540" as="targetPoint" />
            <Array as="points">
              <mxPoint x="250" y="540" />
            </Array>
          </mxGeometry>
        </mxCell>
        <mxCell id="LpX58kXiAm7gqNkwwqnl-36" value="Warning" style="edgeLabel;html=1;align=center;verticalAlign=middle;resizable=0;points=[];" vertex="1" connectable="0" parent="LpX58kXiAm7gqNkwwqnl-35">
          <mxGeometry x="-0.3801" y="4" relative="1" as="geometry">
            <mxPoint x="-41" y="-14" as="offset" />
          </mxGeometry>
        </mxCell>
        <mxCell id="LpX58kXiAm7gqNkwwqnl-37" value="" style="edgeStyle=elbowEdgeStyle;rounded=0;orthogonalLoop=1;jettySize=auto;html=1;elbow=vertical;curved=0;" edge="1" parent="1">
          <mxGeometry relative="1" as="geometry">
            <mxPoint x="80" y="580" as="sourcePoint" />
            <mxPoint x="269.4999999999998" y="580" as="targetPoint" />
            <Array as="points">
              <mxPoint x="170" y="580" />
            </Array>
          </mxGeometry>
        </mxCell>
        <mxCell id="LpX58kXiAm7gqNkwwqnl-38" value="pick an option" style="edgeLabel;html=1;align=center;verticalAlign=middle;resizable=0;points=[];" vertex="1" connectable="0" parent="LpX58kXiAm7gqNkwwqnl-37">
          <mxGeometry x="-0.3801" y="4" relative="1" as="geometry">
            <mxPoint x="31" y="-6" as="offset" />
          </mxGeometry>
        </mxCell>
        <mxCell id="LpX58kXiAm7gqNkwwqnl-39" value="" style="edgeStyle=elbowEdgeStyle;rounded=0;orthogonalLoop=1;jettySize=auto;html=1;elbow=vertical;curved=0;" edge="1" parent="1" target="LpX58kXiAm7gqNkwwqnl-9">
          <mxGeometry relative="1" as="geometry">
            <mxPoint x="280" y="600" as="sourcePoint" />
            <mxPoint x="459.4999999999998" y="600" as="targetPoint" />
            <Array as="points">
              <mxPoint x="360" y="600" />
            </Array>
          </mxGeometry>
        </mxCell>
        <mxCell id="LpX58kXiAm7gqNkwwqnl-40" value="[appointmentJoinChoosen] add join request" style="edgeLabel;html=1;align=center;verticalAlign=middle;resizable=0;points=[];" vertex="1" connectable="0" parent="LpX58kXiAm7gqNkwwqnl-39">
          <mxGeometry x="-0.3801" y="4" relative="1" as="geometry">
            <mxPoint x="177" y="-6" as="offset" />
          </mxGeometry>
        </mxCell>
        <mxCell id="LpX58kXiAm7gqNkwwqnl-41" value="" style="edgeStyle=elbowEdgeStyle;rounded=0;orthogonalLoop=1;jettySize=auto;html=1;elbow=vertical;curved=0;entryX=1;entryY=0.981;entryDx=0;entryDy=0;entryPerimeter=0;" edge="1" parent="1">
          <mxGeometry relative="1" as="geometry">
            <mxPoint x="360" y="600" as="sourcePoint" />
            <mxPoint x="80" y="629.9999999999999" as="targetPoint" />
            <Array as="points">
              <mxPoint x="180" y="630.07" />
            </Array>
          </mxGeometry>
        </mxCell>
        <mxCell id="LpX58kXiAm7gqNkwwqnl-42" value="[cancelChoosen]back to main screen" style="edgeLabel;html=1;align=center;verticalAlign=middle;resizable=0;points=[];" vertex="1" connectable="0" parent="LpX58kXiAm7gqNkwwqnl-41">
          <mxGeometry x="-0.3801" y="4" relative="1" as="geometry">
            <mxPoint x="-123" y="-24" as="offset" />
          </mxGeometry>
        </mxCell>
        <mxCell id="LpX58kXiAm7gqNkwwqnl-43" value="" style="endArrow=classic;html=1;rounded=0;" edge="1" parent="1">
          <mxGeometry width="50" height="50" relative="1" as="geometry">
            <mxPoint x="709.4999999999998" y="30" as="sourcePoint" />
            <mxPoint x="280" y="30" as="targetPoint" />
          </mxGeometry>
        </mxCell>
        <mxCell id="LpX58kXiAm7gqNkwwqnl-44" value="joinRequestExist" style="edgeLabel;html=1;align=center;verticalAlign=middle;resizable=0;points=[];" vertex="1" connectable="0" parent="LpX58kXiAm7gqNkwwqnl-43">
          <mxGeometry x="0.2652" y="1" relative="1" as="geometry">
            <mxPoint x="-22" y="-9" as="offset" />
          </mxGeometry>
        </mxCell>
        <mxCell id="LpX58kXiAm7gqNkwwqnl-45" value="" style="endArrow=classic;html=1;rounded=0;" edge="1" parent="1">
          <mxGeometry width="50" height="50" relative="1" as="geometry">
            <mxPoint x="270" y="59.99999999999977" as="sourcePoint" />
            <mxPoint x="80" y="59.999999999999545" as="targetPoint" />
          </mxGeometry>
        </mxCell>
        <mxCell id="LpX58kXiAm7gqNkwwqnl-46" value="showPopup" style="edgeLabel;html=1;align=center;verticalAlign=middle;resizable=0;points=[];" vertex="1" connectable="0" parent="LpX58kXiAm7gqNkwwqnl-45">
          <mxGeometry x="0.2566" y="2" relative="1" as="geometry">
            <mxPoint x="19" y="-12" as="offset" />
          </mxGeometry>
        </mxCell>
        <mxCell id="LpX58kXiAm7gqNkwwqnl-47" value="" style="endArrow=classic;html=1;rounded=0;" edge="1" parent="1">
          <mxGeometry width="50" height="50" relative="1" as="geometry">
            <mxPoint x="80" y="79.99999999999977" as="sourcePoint" />
            <mxPoint x="270" y="79.99999999999977" as="targetPoint" />
          </mxGeometry>
        </mxCell>
        <mxCell id="LpX58kXiAm7gqNkwwqnl-48" value="pick option" style="edgeLabel;html=1;align=center;verticalAlign=middle;resizable=0;points=[];" vertex="1" connectable="0" parent="LpX58kXiAm7gqNkwwqnl-47">
          <mxGeometry x="0.2566" y="2" relative="1" as="geometry">
            <mxPoint x="-19" y="-8" as="offset" />
          </mxGeometry>
        </mxCell>
        <mxCell id="LpX58kXiAm7gqNkwwqnl-49" value="" style="endArrow=classic;html=1;rounded=0;" edge="1" parent="1" target="LpX58kXiAm7gqNkwwqnl-8">
          <mxGeometry width="50" height="50" relative="1" as="geometry">
            <mxPoint x="280" y="89.99999999999977" as="sourcePoint" />
            <mxPoint x="470" y="89.99999999999977" as="targetPoint" />
          </mxGeometry>
        </mxCell>
        <mxCell id="LpX58kXiAm7gqNkwwqnl-50" value="[aggreeChoosen]AppointmentOverwrite" style="edgeLabel;html=1;align=center;verticalAlign=middle;resizable=0;points=[];" vertex="1" connectable="0" parent="LpX58kXiAm7gqNkwwqnl-49">
          <mxGeometry x="0.2566" y="2" relative="1" as="geometry">
            <mxPoint x="-19" y="-8" as="offset" />
          </mxGeometry>
        </mxCell>
        <mxCell id="LpX58kXiAm7gqNkwwqnl-51" value="" style="endArrow=classic;html=1;rounded=0;" edge="1" parent="1" target="LpX58kXiAm7gqNkwwqnl-9">
          <mxGeometry width="50" height="50" relative="1" as="geometry">
            <mxPoint x="370" y="90" as="sourcePoint" />
            <mxPoint x="769" y="109.99999999999999" as="targetPoint" />
            <Array as="points">
              <mxPoint x="370" y="120" />
            </Array>
          </mxGeometry>
        </mxCell>
        <mxCell id="LpX58kXiAm7gqNkwwqnl-52" value="[else]delete request" style="edgeLabel;html=1;align=center;verticalAlign=middle;resizable=0;points=[];" vertex="1" connectable="0" parent="LpX58kXiAm7gqNkwwqnl-51">
          <mxGeometry x="0.2566" y="2" relative="1" as="geometry">
            <mxPoint x="-22" y="-12" as="offset" />
          </mxGeometry>
        </mxCell>
      </root>
    </mxGraphModel>
  </diagram>
</mxfile>
